PathFileType	4	(X/Y/Z)	pose_F01_0-95.trc
DataRate	CameraRate	NumFrames	NumMarkers	Units	OrigDataRate	OrigDataStartFrame	OrigNumFrames
30	30	5	21	m	30	23	95
Frame#	Time	CHip			RHip			RKnee			RAnkle			RBigToe			RSmallToe			RHeel			LHip			LKnee			LAnkle			LBigToe			LSmallToe			LHeel			Neck			Nose			RShoulder			RElbow			RWrist			LShoulder			LElbow			LWrist			
		X1	Y1	Z1	X2	Y2	Z2	X3	Y3	Z3	X4	Y4	Z4	X5	Y5	Z5	X6	Y6	Z6	X7	Y7	Z7	X8	Y8	Z8	X9	Y9	Z9	X10	Y10	Z10	X11	Y11	Z11	X12	Y12	Z12	X13	Y13	Z13	X14	Y14	Z14	X15	Y15	Z15	X16	Y16	Z16	X17	Y17	Z17	X18	Y18	Z18	X19	Y19	Z19	X20	Y20	Z20	X21	Y21	Z21	
23	0.7666666666666667	-0.18716909495495557	1.8371821508494472	-0.6000007710423412	-0.19809004922411913	1.8355588500616957	-0.5406225075851161	-0.20067615891394952	1.7103453541728049	-0.5220437023578264	-0.18800196315011966	1.593157496054917	-0.49558821131351	-0.21647431485674853	1.5634659882057036	-0.46640836191924295	-0.21182054277203044	1.5728147299189335	-0.4453663572089204	-0.18487307963444416	1.5884601067007735	-0.5074215553407112	-0.17276409329461453	1.8391502387864085	-0.6699202015962071	-0.17700203764900324	1.713448118558773	-0.655486794621364	-0.1705256212291306	1.5836519117242818	-0.6555820171190052	-0.19722908035596481	1.5456358110609216	-0.6411315653995031	-0.18800011922115056	1.5489948969378766	-0.6675984811354995	-0.16257576100468463	1.5719129671413117	-0.6535333607242039	-0.17655015321456266	1.9940253021234293	-0.6301267198158617	-0.2008937967655399	2.0547714968830224	-0.5949514888684423	-0.19179810286260018	1.9887052414810675	-0.5381636744218313	-0.2003483304582509	1.9106249273341154	-0.48331841211611526	-0.21200825481029034	1.9113181040145155	-0.5432166002363084	-0.15756256378186737	1.9984920534134278	-0.7263566941535521	-0.14154327323925922	1.921978117920803	-0.7790930440821212	-0.1948675941275543	1.906980780242332	-0.6656076107761402
24	0.8	-0.1875938690415006	1.8382955051639387	-0.5912379706491819	-0.1973977279716834	1.8365771434230895	-0.5286473541483299	-0.19891679148722877	1.711525448893107	-0.515339607645661	-0.19004747723438498	1.5938824015786786	-0.49303487644712785	-0.21510260829159417	1.5645802043628323	-0.4632628867528358	-0.2103974212439597	1.5736409728458203	-0.4422270318736201	-0.18392394581261054	1.5887364794299146	-0.5038030017793328	-0.17373616709636575	1.8401386741086814	-0.6526273778454976	-0.17663407250712723	1.7146171502001784	-0.6435594371984031	-0.17224979201043586	1.5835558503089182	-0.6540709113488682	-0.1971832651631458	1.5470273282808766	-0.6331307839397227	-0.18690028712716364	1.5507285060721112	-0.664984672509598	-0.16446274437120592	1.5725599248388553	-0.6521765125087784	-0.17694064170579304	1.9924009342189228	-0.6211529330361433	-0.20107965695177032	2.0544565512297446	-0.5866616677881522	-0.19281099563737916	1.9896917671096899	-0.5326527927543179	-0.20206750722920575	1.9120805810076875	-0.4724071023785273	-0.21357110566272328	1.9218739621502419	-0.5396141272519632	-0.15749968848424958	1.9966817207836403	-0.7147450523879733	-0.1437376510924372	1.9206336861855906	-0.7647909557961767	-0.20092827439401809	1.911056438474714	-0.6476023207204367
25	0.8333333333333334	-0.18602598623671107	1.8369219141085638	-0.5844227157294231	-0.19675926089399198	1.8350423686109554	-0.5164530943509793	-0.19574080293146043	1.7116282655483654	-0.5057073557020489	-0.18766522237848962	1.5941064449271198	-0.49596758309262867	-0.2152760780373787	1.5632184199825523	-0.4629729139100511	-0.20956473759038172	1.572142404084746	-0.43864509787586803	-0.18452552490657242	1.5864884079793078	-0.5076366990844411	-0.17294333303498027	1.8373972674867243	-0.6487715521127914	-0.17910338687472782	1.7129476191454533	-0.6322537484290199	-0.1715690315284724	1.5850856313721813	-0.6507549500560466	-0.19839951871297914	1.5496689683006013	-0.6279011580321889	-0.18957348156091902	1.5535381717474963	-0.6621028287265088	-0.16243052558420723	1.5738287422561523	-0.6541713695407416	-0.17820670598359914	1.993564044110951	-0.6160318297116898	-0.20012885709790665	2.0543076857937814	-0.5834733398992645	-0.1970634172718777	1.9894439041837964	-0.5198662090699547	-0.20714233851482822	1.9133383871250749	-0.45378904841578677	-0.21359598942431496	1.9246268144725658	-0.5311271106206235	-0.15665518625235902	1.996540662007576	-0.7116072364656143	-0.14467772267601084	1.9240076749025559	-0.756884518870001	-0.1984463093962128	1.9189163496159292	-0.6395405782598148
26	0.8666666666666667	-0.18611122261383956	1.8393896573187796	-0.5761336347860104	-0.19572981928608316	1.837648886499423	-0.5134947650839639	-0.19503013934301977	1.7142966256894172	-0.5023696877891448	-0.1867633379303632	1.5943592754842555	-0.49271032619818633	-0.21499435345240725	1.5643131379671453	-0.46351529363196686	-0.20934799969017504	1.5733897027259607	-0.43919573579872623	-0.18379612564441913	1.5878668483711396	-0.5040141509460094	-0.1733764179056859	1.8411393171240125	-0.6407745935728831	-0.1801927643172954	1.7182206925755037	-0.6274645213306145	-0.17117391731839499	1.5890553307128958	-0.6515984650291793	-0.19082063100920216	1.553043882354757	-0.6315512786285274	-0.18374005384037262	1.5576990896622949	-0.6643449817074241	-0.16426196109956087	1.5778143374407902	-0.652899974177734	-0.1773035276791979	1.9935302364521035	-0.6127527294302093	-0.1993441174441778	2.053068882356661	-0.5804444458514837	-0.19520307275522047	1.9916844046986364	-0.5139010057571617	-0.19688074934815183	1.9179148674130315	-0.4568056684885682	-0.22339241727855316	1.9196032203575912	-0.5162150549344577	-0.15498826106170416	1.9963376453512702	-0.7055661867547213	-0.14300492308527188	1.9211710845486585	-0.750131983845796	-0.20217937185419252	1.9204397954107335	-0.6523391662695686
27	0.9	-0.18523303532623747	1.8366872063898074	-0.5723315097368479	-0.19469684010312954	1.8336742420101364	-0.5095146122960897	-0.19518592513832683	1.7130253124295352	-0.5017608748132524	-0.18897029013192548	1.592950768400689	-0.49002541380507647	-0.21533496672675176	1.5632677629419276	-0.46304304255820394	-0.21071191699732725	1.5725150962622272	-0.44195637507832136	-0.18362975524481207	1.586953592789553	-0.5042578776962913	-0.173226799829974	1.8397233140618299	-0.6403423201703313	-0.18221112243982554	1.7168930158234592	-0.6251234804404057	-0.16688843391783126	1.5934000081903232	-0.6483143934176339	-0.18636838802729874	1.556026981772771	-0.636531883062282	-0.17927129241322076	1.5612717169930448	-0.6692537508942412	-0.1614315827018903	1.5838976828099678	-0.6485593257527632	-0.1775494065433822	1.9931953908646582	-0.6042099209433471	-0.1973331094336656	2.0518294031432536	-0.5820777618440374	-0.19323029317204055	1.9901996057812912	-0.5069855794910926	-0.19792403380496487	1.917947667658883	-0.4512338650579005	-0.21736492034155527	1.9152932083257095	-0.5049255368293643	-0.1549754324656843	1.995108740034159	-0.7049932538144199	-0.14216157414612202	1.9210738292983218	-0.7468315487891425	-0.18872185979980008	1.9164194449948186	-0.6333198974208222
